<svg width="637" height="239" viewBox="0 0 637 239" fill="none" xmlns="http://www.w3.org/2000/svg">
<path d="M239.138 57.1207H50.8622V148.845H239.138V57.1207Z" fill="#FFE182"/>
<path d="M242.759 47.293H47.2413C43.2423 47.293 40 50.2261 40 53.8446V171.776C40 175.394 43.2423 178.327 47.2413 178.327H242.759C246.758 178.327 250 175.394 250 171.776V53.8446C250 50.2261 246.758 47.293 242.759 47.293ZM239.138 148.845H50.8622V57.1207H239.138V148.845Z" fill="#464655"/>
<path d="M40 158.672V171.776C40 175.394 43.2419 178.327 47.2413 178.327H242.759C246.758 178.327 250 175.394 250 171.776V158.672H40Z" fill="#C7CFE2"/>
<path d="M173.966 204.534H116.034L119.655 178.328H170.345L173.966 204.534Z" fill="#AFB9D2"/>
<path d="M171.25 184.879L170.345 178.328H119.655L118.75 184.879H171.25Z" fill="#959CB3"/>
<path d="M145 173.414C147.999 173.414 150.431 171.214 150.431 168.5C150.431 165.786 147.999 163.586 145 163.586C142.001 163.586 139.569 165.786 139.569 168.5C139.569 171.214 142.001 173.414 145 173.414Z" fill="#959CB3"/>
<path d="M173.966 207.81H116.034C114.035 207.81 112.413 206.343 112.413 204.534C112.413 202.725 114.035 201.258 116.034 201.258H173.965C175.965 201.258 177.586 202.725 177.586 204.534C177.586 206.343 175.965 207.81 173.966 207.81Z" fill="#C7CFE2"/>
<path d="M188.448 148.845H101.552L105.034 70.093C105.111 68.3362 106.708 66.9483 108.652 66.9483H181.349C183.293 66.9483 184.889 68.3366 184.967 70.093L188.448 148.845Z" fill="#FF6464"/>
<path d="M101.552 148.845H184.827L104.755 76.3979L101.552 148.845Z" fill="#D2555A"/>
<path d="M163.103 80.0517C161.104 80.0517 159.483 78.5866 159.483 76.7756V53.8447C159.483 46.618 152.986 40.7413 145 40.7413C137.014 40.7413 130.517 46.6183 130.517 53.8447V76.7756C130.517 78.5862 128.896 80.0517 126.897 80.0517C124.897 80.0517 123.276 78.5866 123.276 76.7756V53.8447C123.276 43.0061 133.02 34.1893 145 34.1893C156.98 34.1893 166.724 43.0057 166.724 53.8447V76.7756C166.724 78.5866 165.103 80.0517 163.103 80.0517Z" fill="#D2555A"/>
<path d="M159.483 119.362H140.211C137.232 119.362 134.592 117.743 133.486 115.241L128.065 102.983H126.897C124.897 102.983 123.276 101.518 123.276 99.7066C123.276 97.8961 124.897 96.4306 126.897 96.4306H130.517C131.997 96.4306 133.329 97.2463 133.88 98.4906L134.418 99.7063H159.483C161.483 99.7063 163.104 101.171 163.104 102.982V116.086C163.103 117.897 161.482 119.362 159.483 119.362ZM137.313 106.259L140.209 112.81H155.862V106.259H137.313Z" fill="#FFE182"/>
<path d="M137.759 129.19C139.758 129.19 141.38 127.723 141.38 125.914C141.38 124.104 139.758 122.638 137.759 122.638C135.759 122.638 134.138 124.104 134.138 125.914C134.138 127.723 135.759 129.19 137.759 129.19Z" fill="#FFC36E"/>
<path d="M159.483 129.19C161.482 129.19 163.103 127.723 163.103 125.914C163.103 124.104 161.482 122.638 159.483 122.638C157.483 122.638 155.862 124.104 155.862 125.914C155.862 127.723 157.483 129.19 159.483 129.19Z" fill="#FFE182"/>
<path d="M123.276 99.707C123.276 101.518 124.897 102.983 126.897 102.983H128.065L133.486 115.242C134.592 117.744 137.232 119.363 140.211 119.363H152.241L145 112.811H140.209L137.313 106.259H137.759L126.897 96.4314C124.897 96.431 123.276 97.8961 123.276 99.707Z" fill="#FFC36E"/>
<path d="M159.483 129.19C160.483 129.19 161.387 128.823 162.043 128.23L156.923 123.598C156.267 124.19 155.862 125.009 155.862 125.914C155.862 127.723 157.483 129.19 159.483 129.19Z" fill="#FFC36E"/>
<path d="M318.15 133.75C318.99 133.99 320.07 134.17 321.39 134.29C322.71 134.35 323.97 134.38 325.17 134.38C327.57 134.38 329.55 133.9 331.11 132.94C332.73 131.92 333.54 130.36 333.54 128.26C333.54 126.28 332.88 124.87 331.56 124.03C330.24 123.19 328.23 122.77 325.53 122.77H318.15V133.75ZM318.15 111.79H324.72C327.3 111.79 329.16 111.31 330.3 110.35C331.5 109.39 332.1 107.98 332.1 106.12C332.1 104.5 331.41 103.21 330.03 102.25C328.71 101.29 326.7 100.81 324 100.81C323.1 100.81 322.05 100.84 320.85 100.9C319.71 100.96 318.81 101.05 318.15 101.17V111.79ZM324 146.44C322.98 146.44 321.78 146.41 320.4 146.35C319.02 146.29 317.58 146.17 316.08 145.99C314.64 145.81 313.2 145.57 311.76 145.27C310.32 145.03 309 144.67 307.8 144.19C304.5 142.93 302.85 140.74 302.85 137.62V95.59C302.85 94.33 303.18 93.37 303.84 92.71C304.56 91.99 305.52 91.42 306.72 91C308.76 90.28 311.31 89.77 314.37 89.47C317.43 89.11 320.58 88.93 323.82 88.93C331.5 88.93 337.41 90.22 341.55 92.8C345.69 95.38 347.76 99.37 347.76 104.77C347.76 107.47 346.98 109.81 345.42 111.79C343.86 113.71 341.76 115.12 339.12 116.02C342.12 116.86 344.61 118.39 346.59 120.61C348.63 122.83 349.65 125.62 349.65 128.98C349.65 134.92 347.43 139.33 342.99 142.21C338.61 145.03 332.28 146.44 324 146.44ZM374.233 127.36V144.64C373.573 144.82 372.523 145 371.083 145.18C369.703 145.36 368.323 145.45 366.943 145.45C365.563 145.45 364.333 145.33 363.253 145.09C362.233 144.91 361.363 144.55 360.643 144.01C359.983 143.47 359.473 142.72 359.113 141.76C358.753 140.8 358.573 139.54 358.573 137.98V95.59C358.573 94.33 358.903 93.37 359.563 92.71C360.283 91.99 361.243 91.42 362.443 91C364.483 90.28 366.853 89.77 369.553 89.47C372.253 89.11 375.133 88.93 378.193 88.93C386.473 88.93 392.713 90.67 396.913 94.15C401.113 97.63 403.213 102.34 403.213 108.28C403.213 112 402.253 115.18 400.333 117.82C398.413 120.46 396.133 122.5 393.493 123.94C395.653 126.88 397.783 129.64 399.883 132.22C401.983 134.8 403.633 137.14 404.833 139.24C404.233 141.34 403.123 142.96 401.503 144.1C399.943 145.18 398.173 145.72 396.193 145.72C394.873 145.72 393.733 145.57 392.773 145.27C391.813 144.97 390.973 144.55 390.253 144.01C389.533 143.47 388.873 142.81 388.273 142.03C387.673 141.25 387.103 140.41 386.563 139.51L379.003 127.36H374.233ZM379.903 115.39C382.183 115.39 383.983 114.82 385.303 113.68C386.623 112.48 387.283 110.74 387.283 108.46C387.283 106.18 386.533 104.47 385.033 103.33C383.593 102.13 381.283 101.53 378.103 101.53C377.203 101.53 376.483 101.56 375.943 101.62C375.403 101.68 374.803 101.77 374.143 101.89V115.39H379.903ZM425.73 92.08C426.75 91.48 428.28 90.91 430.32 90.37C432.42 89.83 434.52 89.56 436.62 89.56C439.62 89.56 442.26 90.01 444.54 90.91C446.88 91.75 448.38 93.1 449.04 94.96C450.12 98.08 451.29 101.71 452.55 105.85C453.81 109.99 455.07 114.28 456.33 118.72C457.59 123.1 458.82 127.45 460.02 131.77C461.22 136.03 462.27 139.81 463.17 143.11C462.45 143.95 461.37 144.61 459.93 145.09C458.49 145.63 456.78 145.9 454.8 145.9C453.36 145.9 452.13 145.78 451.11 145.54C450.15 145.3 449.34 144.94 448.68 144.46C448.08 143.98 447.57 143.35 447.15 142.57C446.79 141.79 446.46 140.89 446.16 139.87L444.54 133.66H428.25C427.77 135.46 427.29 137.32 426.81 139.24C426.33 141.16 425.85 143.02 425.37 144.82C424.53 145.12 423.63 145.36 422.67 145.54C421.77 145.78 420.66 145.9 419.34 145.9C416.28 145.9 414 145.39 412.5 144.37C411.06 143.29 410.34 141.82 410.34 139.96C410.34 139.12 410.46 138.28 410.7 137.44C410.94 136.6 411.21 135.61 411.51 134.47C411.93 132.85 412.5 130.84 413.22 128.44C414 126.04 414.84 123.46 415.74 120.7C416.64 117.88 417.6 115 418.62 112.06C419.64 109.12 420.6 106.36 421.5 103.78C422.4 101.14 423.21 98.8 423.93 96.76C424.71 94.72 425.31 93.16 425.73 92.08ZM436.53 103.69C435.69 106.21 434.73 109.03 433.65 112.15C432.63 115.21 431.7 118.33 430.86 121.51H442.02C441.18 118.27 440.31 115.12 439.41 112.06C438.57 108.94 437.79 106.15 437.07 103.69H436.53ZM519.955 143.11C519.115 143.95 517.885 144.58 516.265 145C514.705 145.48 512.815 145.72 510.595 145.72C508.375 145.72 506.275 145.39 504.295 144.73C502.315 144.07 500.695 142.48 499.435 139.96L490.525 121.78C489.625 119.92 488.815 118.18 488.095 116.56C487.375 114.88 486.595 112.96 485.755 110.8L485.215 110.89C485.455 114.13 485.575 117.43 485.575 120.79C485.635 124.15 485.665 127.45 485.665 130.69V144.64C485.005 144.82 483.985 145 482.605 145.18C481.285 145.36 479.965 145.45 478.645 145.45C477.325 145.45 476.155 145.36 475.135 145.18C474.115 145 473.275 144.64 472.615 144.1C471.955 143.56 471.445 142.84 471.085 141.94C470.725 140.98 470.545 139.75 470.545 138.25V93.25C471.385 92.05 472.675 91.15 474.415 90.55C476.155 89.95 478.015 89.65 479.995 89.65C482.215 89.65 484.315 90.01 486.295 90.73C488.335 91.39 489.955 92.95 491.155 95.41L500.155 113.59C501.055 115.45 501.865 117.22 502.585 118.9C503.305 120.52 504.085 122.41 504.925 124.57L505.375 124.48C505.135 121.24 504.985 118 504.925 114.76C504.865 111.52 504.835 108.28 504.835 105.04V90.46C505.495 90.28 506.485 90.1 507.805 89.92C509.185 89.74 510.535 89.65 511.855 89.65C514.495 89.65 516.505 90.13 517.885 91.09C519.265 91.99 519.955 93.91 519.955 96.85V143.11ZM547.289 133.3C547.949 133.42 548.759 133.54 549.719 133.66C550.679 133.72 551.579 133.75 552.419 133.75C554.459 133.75 556.319 133.45 557.999 132.85C559.739 132.25 561.209 131.32 562.409 130.06C563.669 128.8 564.629 127.18 565.289 125.2C566.009 123.16 566.369 120.73 566.369 117.91C566.369 112.51 565.109 108.46 562.589 105.76C560.069 103 556.709 101.62 552.509 101.62C551.669 101.62 550.799 101.65 549.899 101.71C549.059 101.77 548.189 101.86 547.289 101.98V133.3ZM552.329 146.44C551.309 146.44 550.139 146.41 548.819 146.35C547.499 146.29 546.119 146.17 544.679 145.99C543.299 145.81 541.889 145.57 540.449 145.27C539.069 145.03 537.779 144.67 536.579 144.19C533.279 142.93 531.629 140.74 531.629 137.62V95.59C531.629 94.33 531.959 93.37 532.619 92.71C533.339 91.99 534.299 91.42 535.499 91C538.079 90.16 540.809 89.62 543.689 89.38C546.569 89.08 549.149 88.93 551.429 88.93C556.109 88.93 560.339 89.5 564.119 90.64C567.959 91.78 571.229 93.55 573.929 95.95C576.689 98.29 578.819 101.26 580.319 104.86C581.819 108.46 582.569 112.72 582.569 117.64C582.569 122.44 581.849 126.64 580.409 130.24C578.969 133.78 576.899 136.78 574.199 139.24C571.559 141.64 568.379 143.44 564.659 144.64C560.939 145.84 556.829 146.44 552.329 146.44Z" fill="black" fill-opacity="0.83"/>
<g filter="url(#filter0_d_1_39)">
<rect x="4" width="629" height="231" rx="10" fill="#D9D9D9" fill-opacity="0.12" shape-rendering="crispEdges"/>
<rect x="5" y="1" width="627" height="229" rx="9" stroke="black" stroke-opacity="0.03" stroke-width="2" shape-rendering="crispEdges"/>
</g>
<defs>
<filter id="filter0_d_1_39" x="0" y="0" width="637" height="239" filterUnits="userSpaceOnUse" color-interpolation-filters="sRGB">
<feFlood flood-opacity="0" result="BackgroundImageFix"/>
<feColorMatrix in="SourceAlpha" type="matrix" values="0 0 0 0 0 0 0 0 0 0 0 0 0 0 0 0 0 0 127 0" result="hardAlpha"/>
<feOffset dy="4"/>
<feGaussianBlur stdDeviation="2"/>
<feComposite in2="hardAlpha" operator="out"/>
<feColorMatrix type="matrix" values="0 0 0 0 0 0 0 0 0 0 0 0 0 0 0 0 0 0 0.25 0"/>
<feBlend mode="normal" in2="BackgroundImageFix" result="effect1_dropShadow_1_39"/>
<feBlend mode="normal" in="SourceGraphic" in2="effect1_dropShadow_1_39" result="shape"/>
</filter>
</defs>
</svg>
